<svg width="68" height="66" viewBox="0 0 68 66" fill="none" xmlns="http://www.w3.org/2000/svg">
<path fill-rule="evenodd" clip-rule="evenodd" d="M11.4625 8.09118C12.5877 6.96596 14.1138 6.33382 15.7051 6.33382H19.2211C20.8123 6.33348 22.3382 5.70111 23.4631 4.57582L25.9471 2.09182C27.0721 0.96652 28.5979 0.334156 30.1891 0.333817H37.2211C38.8123 0.334156 40.3382 0.96652 41.4631 2.09182L43.9471 4.57582C45.0721 5.70111 46.5979 6.33348 48.1891 6.33382H51.7051C53.2964 6.33382 54.8225 6.96596 55.9478 8.09118C57.073 9.21639 57.7051 10.7425 57.7051 12.3338V30.3338C57.7051 31.9251 57.073 33.4512 55.9478 34.5765C54.8225 35.7017 53.2964 36.3338 51.7051 36.3338H15.7051C14.1138 36.3338 12.5877 35.7017 11.4625 34.5765C10.3373 33.4512 9.70512 31.9251 9.70512 30.3338V12.3338C9.70512 10.7425 10.3373 9.21639 11.4625 8.09118ZM16.1445 11.8945C16.4258 12.1758 16.8073 12.3338 17.2051 12.3338C17.6029 12.3338 17.9845 12.1758 18.2658 11.8945C18.5471 11.6132 18.7051 11.2316 18.7051 10.8338C18.7051 10.436 18.5471 10.0545 18.2658 9.77316C17.9845 9.49185 17.6029 9.33382 17.2051 9.33382C16.8073 9.33382 16.4258 9.49185 16.1445 9.77316C15.8632 10.0545 15.7051 10.436 15.7051 10.8338C15.7051 11.2316 15.8632 11.6132 16.1445 11.8945ZM41.1297 27.2584C43.0989 25.2893 44.2051 22.6186 44.2051 19.8338C44.2051 17.049 43.0989 14.3783 41.1297 12.4092C39.1606 10.4401 36.4899 9.33382 33.7051 9.33382C30.9203 9.33382 28.2496 10.4401 26.2805 12.4092C24.3114 14.3783 23.2051 17.049 23.2051 19.8338C23.2051 22.6186 24.3114 25.2893 26.2805 27.2584C28.2496 29.2276 30.9203 30.3338 33.7051 30.3338C36.4899 30.3338 39.1606 29.2276 41.1297 27.2584ZM41.2051 19.8338C41.2051 21.8229 40.4149 23.7306 39.0084 25.1371C37.6019 26.5436 35.6942 27.3338 33.7051 27.3338C31.716 27.3338 29.8083 26.5436 28.4018 25.1371C26.9953 23.7306 26.2051 21.8229 26.2051 19.8338C26.2051 17.8447 26.9953 15.937 28.4018 14.5305C29.8083 13.124 31.716 12.3338 33.7051 12.3338C35.6942 12.3338 37.6019 13.124 39.0084 14.5305C40.4149 15.937 41.2051 17.8447 41.2051 19.8338ZM5.80757 41.6365H6.86439V47.4149C6.86439 48.0115 6.72376 48.5442 6.44251 49.0129C6.1641 49.4788 5.77064 49.8467 5.26211 50.1166C4.75359 50.3837 4.157 50.5172 3.47234 50.5172C2.78768 50.5172 2.19109 50.3837 1.68257 50.1166C1.17404 49.8467 0.779158 49.4788 0.497907 49.0129C0.219498 48.5442 0.0802939 48.0115 0.0802939 47.4149V41.6365H1.13711V47.3297C1.13711 47.7558 1.23086 48.1351 1.41836 48.4675C1.60586 48.797 1.87291 49.057 2.2195 49.2473C2.56893 49.4348 2.98654 49.5286 3.47234 49.5286C3.95814 49.5286 4.37575 49.4348 4.72518 49.2473C5.07461 49.057 5.34166 48.797 5.52632 48.4675C5.71382 48.1351 5.80757 47.7558 5.80757 47.3297V41.6365ZM8.97482 50.3638V41.6365H12.026C12.6339 41.6365 13.1353 41.7416 13.5302 41.9519C13.9251 42.1592 14.2191 42.4391 14.4123 42.7913C14.6055 43.1408 14.7021 43.5286 14.7021 43.9547C14.7021 44.3297 14.6353 44.6394 14.5018 44.8837C14.3711 45.128 14.1978 45.3212 13.9819 45.4632C13.7689 45.6053 13.5373 45.7104 13.2873 45.7786V45.8638C13.5544 45.8808 13.8228 45.9746 14.0927 46.145C14.3626 46.3155 14.5885 46.5598 14.7703 46.878C14.9521 47.1962 15.043 47.5854 15.043 48.0456C15.043 48.4831 14.9436 48.8766 14.7447 49.226C14.5458 49.5754 14.2319 49.8524 13.8029 50.057C13.374 50.2615 12.8157 50.3638 12.1282 50.3638H8.97482ZM10.0316 49.4263H12.1282C12.8186 49.4263 13.3086 49.2928 13.5984 49.0257C13.891 48.7558 14.0373 48.4291 14.0373 48.0456C14.0373 47.7501 13.962 47.4774 13.8115 47.2274C13.6609 46.9746 13.4464 46.7729 13.168 46.6223C12.8896 46.4689 12.5601 46.3922 12.1794 46.3922H10.0316V49.4263ZM10.0316 45.4717H11.9919C12.3101 45.4717 12.597 45.4092 12.8527 45.2842C13.1112 45.1592 13.3157 44.9831 13.4663 44.7558C13.6197 44.5286 13.6964 44.2615 13.6964 43.9547C13.6964 43.5712 13.5629 43.2459 13.2958 42.9788C13.0288 42.709 12.6055 42.574 12.026 42.574H10.0316V45.4717ZM17.1375 50.3638H16.0295L19.2341 41.6365H20.325L23.5295 50.3638H22.4216L21.5442 47.8922H18.0149L17.1375 50.3638ZM19.8136 43.0172L21.2114 46.9547H18.3477L19.7454 43.0172H19.8136ZM24.8889 50.3638V41.6365H25.9457V45.5229H30.5991V41.6365H31.6559V50.3638H30.5991V46.4604H25.9457V50.3638H24.8889ZM37.1467 50.3638V41.6365H42.3797V42.574H38.2035V45.5229H41.9876V46.4604H38.2035V50.3638H37.1467ZM51.5533 46.0001C51.5533 46.9206 51.3871 47.7161 51.0547 48.3865C50.7223 49.057 50.2664 49.574 49.6868 49.9376C49.1073 50.3013 48.4454 50.4831 47.701 50.4831C46.9567 50.4831 46.2948 50.3013 45.7152 49.9376C45.1357 49.574 44.6797 49.057 44.3473 48.3865C44.015 47.7161 43.8488 46.9206 43.8488 46.0001C43.8488 45.0797 44.015 44.2842 44.3473 43.6138C44.6797 42.9433 45.1357 42.4263 45.7152 42.0626C46.2948 41.699 46.9567 41.5172 47.701 41.5172C48.4454 41.5172 49.1073 41.699 49.6868 42.0626C50.2664 42.4263 50.7223 42.9433 51.0547 43.6138C51.3871 44.2842 51.5533 45.0797 51.5533 46.0001ZM50.5306 46.0001C50.5306 45.2445 50.4042 44.6067 50.1513 44.0868C49.9013 43.5669 49.5618 43.1734 49.1329 42.9064C48.7067 42.6394 48.2294 42.5058 47.701 42.5058C47.1726 42.5058 46.6939 42.6394 46.265 42.9064C45.8388 43.1734 45.4993 43.5669 45.2465 44.0868C44.9965 44.6067 44.8715 45.2445 44.8715 46.0001C44.8715 46.7558 44.9965 47.3936 45.2465 47.9135C45.4993 48.4334 45.8388 48.8269 46.265 49.0939C46.6939 49.3609 47.1726 49.4945 47.701 49.4945C48.2294 49.4945 48.7067 49.3609 49.1329 49.0939C49.5618 48.8269 49.9013 48.4334 50.1513 47.9135C50.4042 47.3936 50.5306 46.7558 50.5306 46.0001ZM52.4897 42.574V41.6365H59.0352V42.574H56.2909V50.3638H55.2341V42.574H52.4897ZM67.6666 46.0001C67.6666 46.9206 67.5004 47.7161 67.168 48.3865C66.8356 49.057 66.3797 49.574 65.8001 49.9376C65.2206 50.3013 64.5586 50.4831 63.8143 50.4831C63.07 50.4831 62.4081 50.3013 61.8285 49.9376C61.249 49.574 60.793 49.057 60.4606 48.3865C60.1282 47.7161 59.962 46.9206 59.962 46.0001C59.962 45.0797 60.1282 44.2842 60.4606 43.6138C60.793 42.9433 61.249 42.4263 61.8285 42.0626C62.4081 41.699 63.07 41.5172 63.8143 41.5172C64.5586 41.5172 65.2206 41.699 65.8001 42.0626C66.3797 42.4263 66.8356 42.9433 67.168 43.6138C67.5004 44.2842 67.6666 45.0797 67.6666 46.0001ZM66.6439 46.0001C66.6439 45.2445 66.5174 44.6067 66.2646 44.0868C66.0146 43.5669 65.6751 43.1734 65.2461 42.9064C64.82 42.6394 64.3427 42.5058 63.8143 42.5058C63.2859 42.5058 62.8072 42.6394 62.3782 42.9064C61.9521 43.1734 61.6126 43.5669 61.3598 44.0868C61.1098 44.6067 60.9848 45.2445 60.9848 46.0001C60.9848 46.7558 61.1098 47.3936 61.3598 47.9135C61.6126 48.4334 61.9521 48.8269 62.3782 49.0939C62.8072 49.3609 63.2859 49.4945 63.8143 49.4945C64.3427 49.4945 64.82 49.3609 65.2461 49.0939C65.6751 48.8269 66.0146 48.4334 66.2646 47.9135C66.5174 47.3936 66.6439 46.7558 66.6439 46.0001ZM10.4748 65.3638V56.6365H13.4237C14.1083 56.6365 14.668 56.7601 15.1027 57.0073C15.5402 57.2516 15.864 57.5825 16.0743 58.0001C16.2845 58.4178 16.3896 58.8837 16.3896 59.3979C16.3896 59.9121 16.2845 60.3794 16.0743 60.7999C15.8669 61.2203 15.5458 61.5555 15.1112 61.8055C14.6765 62.0527 14.1197 62.1763 13.4407 62.1763H11.5316V65.3638H10.4748ZM13.4066 61.2388H11.5316V57.574H13.3896C13.864 57.574 14.2447 57.6536 14.5316 57.8126C14.8186 57.9689 15.026 58.1848 15.1538 58.4604C15.2845 58.7359 15.3498 59.0484 15.3498 59.3979C15.3498 59.7473 15.2845 60.0612 15.1538 60.3396C15.026 60.6152 14.82 60.834 14.5359 60.9959C14.2518 61.1578 13.8754 61.2388 13.4066 61.2388ZM18.092 65.3638V56.6365H21.0409C21.7227 56.6365 22.2824 56.753 22.7199 56.9859C23.1574 57.2161 23.4812 57.5328 23.6914 57.9362C23.9017 58.3396 24.0068 58.7984 24.0068 59.3126C24.0068 59.8269 23.9017 60.2828 23.6914 60.6805C23.4812 61.0783 23.1588 61.3908 22.7241 61.618C22.6157 61.674 22.4997 61.7231 22.3762 61.7651L24.3477 65.3638H23.1204L21.2802 61.9505C21.2076 61.9533 21.1335 61.9547 21.0579 61.9547H19.1488V65.3638H18.092ZM21.0238 61.0001H19.1488V57.574H21.0068C21.4784 57.574 21.8576 57.6465 22.1446 57.7913C22.4315 57.9334 22.6403 58.1351 22.771 58.3965C22.9017 58.6578 22.967 58.9632 22.967 59.3126C22.967 59.6621 22.9017 59.9632 22.771 60.2161C22.6431 60.4661 22.4358 60.6592 22.1488 60.7956C21.8647 60.932 21.4897 61.0001 21.0238 61.0001ZM33.1314 61.0001C33.1314 61.9206 32.9652 62.7161 32.6329 63.3865C32.3005 64.057 31.8445 64.574 31.265 64.9376C30.6854 65.3013 30.0235 65.4831 29.2792 65.4831C28.5348 65.4831 27.8729 65.3013 27.2934 64.9376C26.7138 64.574 26.2579 64.057 25.9255 63.3865C25.5931 62.7161 25.4269 61.9206 25.4269 61.0001C25.4269 60.0797 25.5931 59.2842 25.9255 58.6138C26.2579 57.9433 26.7138 57.4263 27.2934 57.0626C27.8729 56.699 28.5348 56.5172 29.2792 56.5172C30.0235 56.5172 30.6854 56.699 31.265 57.0626C31.8445 57.4263 32.3005 57.9433 32.6329 58.6138C32.9652 59.2842 33.1314 60.0797 33.1314 61.0001ZM32.1087 61.0001C32.1087 60.2445 31.9823 59.6067 31.7294 59.0868C31.4794 58.5669 31.14 58.1734 30.711 57.9064C30.2848 57.6394 29.8076 57.5058 29.2792 57.5058C28.7507 57.5058 28.2721 57.6394 27.8431 57.9064C27.4169 58.1734 27.0775 58.5669 26.8246 59.0868C26.5746 59.6067 26.4496 60.2445 26.4496 61.0001C26.4496 61.7558 26.5746 62.3936 26.8246 62.9135C27.0775 63.4334 27.4169 63.8269 27.8431 64.0939C28.2721 64.3609 28.7507 64.4945 29.2792 64.4945C29.8076 64.4945 30.2848 64.3609 30.711 64.0939C31.14 63.8269 31.4794 63.4334 31.7294 62.9135C31.9823 62.3936 32.1087 61.7558 32.1087 61.0001ZM34.9084 56.6365H40.1414V57.574H35.9652V60.5229H39.7493V61.4604H35.9652V65.3638H34.9084V56.6365ZM43.0082 65.3638H41.9514V56.6365H43.0082V65.3638ZM45.1272 56.6365H46.184V64.4263H50.2408V65.3638H45.1272V56.6365ZM51.8772 56.6365H57.1442V57.574H52.934V60.5229H56.8715V61.4604H52.934V64.4263H57.2124V65.3638H51.8772V56.6365Z" fill="white"/>
</svg>
