<svg width="1733" height="547" viewBox="0 0 1733 547" fill="none" xmlns="http://www.w3.org/2000/svg">
<path d="M740.747 368.75L616.894 39.509C608.026 15.6198 585.857 0 561.323 0C536.493 0 514.323 15.9261 505.456 39.8152L382.49 369.975C380.716 373.344 381.307 376.101 383.376 377.632C385.446 379.47 388.401 380.082 391.062 380.082H464.073C470.28 380.082 474.714 377.02 476.783 370.588C479.739 362.012 482.991 353.13 486.242 344.555C489.494 335.979 492.45 327.404 495.701 318.522L523.191 236.747C526.443 227.866 529.399 218.371 532.65 208.571C535.902 198.77 539.153 188.663 542.109 178.25C545.361 168.143 548.612 157.73 551.568 147.929C554.82 137.822 558.071 128.328 561.323 119.752L598.863 236.747L626.944 318.522C629.9 327.404 633.151 335.979 636.107 344.555C639.359 353.13 642.61 362.012 645.862 370.588C647.044 373.957 648.226 376.713 650.296 377.938C652.365 379.776 655.616 380.082 659.459 380.082H730.401C734.835 380.082 737.791 379.163 739.86 377.02C741.338 374.876 741.929 372.119 740.747 368.75Z" fill="#008041"/>
<path d="M1725.95 368.75L1602.1 39.509C1593.23 15.6198 1571.06 0 1546.53 0C1521.7 0 1499.53 15.9261 1490.66 39.8152L1367.69 369.975C1365.92 373.344 1366.51 376.101 1368.58 377.632C1370.65 379.47 1373.61 380.082 1376.27 380.082H1449.28C1455.49 380.082 1459.92 377.02 1461.99 370.588C1464.94 362.012 1468.2 353.13 1471.45 344.555C1474.7 335.979 1477.65 327.404 1480.91 318.522L1508.4 236.747C1511.65 227.866 1514.6 218.371 1517.86 208.571C1521.11 198.77 1524.36 188.663 1527.31 178.25C1530.57 168.143 1533.82 157.73 1536.77 147.929C1540.02 137.822 1543.28 128.328 1546.53 119.752L1584.07 236.747L1612.15 318.522C1615.1 327.404 1618.36 335.979 1621.31 344.555C1624.56 353.13 1627.82 362.012 1631.07 370.588C1632.25 373.957 1633.43 376.713 1635.5 377.938C1637.57 379.776 1640.82 380.082 1644.66 380.082H1715.61C1720.04 380.082 1723 379.163 1725.06 377.02C1726.54 374.876 1727.13 372.119 1725.95 368.75Z" fill="#008041"/>
<path d="M1026.31 292.795C1024.24 290.651 1021.29 289.732 1018.63 289.732H882.656V11.0258C882.656 7.65677 881.474 4.90034 878.814 3.06271C876.744 0.918813 873.789 0 871.128 0H798.117C794.275 0 791.91 0.918813 789.841 3.36898C787.772 5.51288 786.885 7.96305 786.885 11.0258V369.057C786.885 376.713 790.727 380.082 797.526 380.082H1018.33C1021.58 380.082 1024.54 378.857 1026.61 376.101C1028.38 373.957 1029.57 371.507 1029.57 368.444V301.064C1029.86 297.695 1028.38 294.939 1026.31 292.795Z" fill="#008041"/>
<path d="M1321.59 292.795C1319.53 290.651 1317.16 289.732 1314.2 289.732H1178.23V11.0258C1177.94 7.65677 1176.46 4.90034 1174.09 3.06271C1172.03 0.918813 1169.66 0 1166.7 0H1093.4C1090.15 0 1087.19 0.918813 1085.71 3.36898C1083.64 5.51288 1082.46 7.96305 1082.46 11.0258V369.057C1082.46 376.713 1086.3 380.082 1093.69 380.082H1314.5C1317.75 380.082 1320.41 378.857 1322.19 376.101C1324.25 373.957 1325.14 371.507 1325.14 368.444V301.064C1324.85 297.695 1323.66 294.939 1321.59 292.795Z" fill="#008041"/>
<path d="M40.7916 448.997H55.8668L96.6584 545.472H79.5141L70.0552 522.502H26.0121L16.5531 545.472H0L40.7916 448.997ZM63.8478 507.495L47.8858 469.211L31.9239 507.495H63.8478Z" fill="#AD822D"/>
<path d="M147.508 497.689C147.508 470.737 167.312 447.767 195.098 447.767C211.06 447.767 221.11 452.361 230.569 460.63L220.223 473.493C213.129 467.062 206.035 463.08 194.211 463.08C177.067 463.08 164.357 478.394 164.357 496.77V497.076C164.357 516.678 176.771 531.379 195.689 531.379C204.261 531.379 212.242 528.622 217.859 524.028V506.264H194.211V491.563H233.525V531.685C224.362 539.648 211.356 546.692 195.098 546.692C166.721 546.998 147.508 525.866 147.508 497.689Z" fill="#AD822D"/>
<path d="M255.102 449.602H296.189C307.718 449.602 316.881 453.277 322.793 459.096C327.818 464.303 330.478 471.347 330.478 479.617V479.923C330.478 495.543 321.315 505.037 308.604 509.019L333.434 545.159H314.221L291.46 511.775H271.064V545.159H254.807V449.602H255.102ZM295.007 497.074C306.535 497.074 313.925 490.642 313.925 481.148V480.842C313.925 470.735 306.831 464.916 294.712 464.916H271.064V497.074H295.007Z" fill="#AD822D"/>
<path d="M346.43 497.689C346.43 470.431 366.53 447.767 394.907 447.767C423.283 447.767 443.088 470.124 443.088 497.076V497.382C443.088 524.334 422.988 546.998 394.611 546.998C366.234 546.998 346.43 524.641 346.43 497.689ZM425.944 497.689C425.944 478.7 412.938 463.386 394.611 463.386C376.284 463.386 363.574 478.7 363.574 497.076V497.382C363.574 516.065 376.58 531.379 394.907 531.379C413.233 531.379 425.944 516.371 425.944 497.689Z" fill="#AD822D"/>
<path d="M461.141 504.731V449.602H477.398V504.118C477.398 521.882 486.266 531.376 500.75 531.376C515.234 531.376 524.102 522.495 524.102 504.731V449.602H540.359V503.812C540.359 532.295 524.693 546.69 500.75 546.69C476.511 546.996 461.141 532.602 461.141 504.731Z" fill="#AD822D"/>
<path d="M562.203 449.602H598.561C620.139 449.602 633.736 462.465 633.736 481.761V482.067C633.736 503.506 617.183 514.838 596.787 514.838H578.461V545.771H562.203V449.602V449.602ZM597.379 499.524C609.793 499.524 617.183 492.48 617.183 482.373V482.067C617.183 470.735 609.498 464.916 597.379 464.916H578.461V499.524H597.379V499.524Z" fill="#AD822D"/>
<path d="M685.777 497.689C685.777 470.431 705.878 447.767 734.254 447.767C762.631 447.767 782.436 470.124 782.436 497.076V497.382C782.436 524.334 762.336 546.998 733.959 546.998C705.582 546.998 685.777 524.641 685.777 497.689ZM765.587 497.689C765.587 478.7 752.581 463.386 734.254 463.386C715.928 463.386 703.217 478.7 703.217 497.076V497.382C703.217 516.065 716.223 531.379 734.55 531.379C752.581 531.379 765.587 516.371 765.587 497.689Z" fill="#AD822D"/>
<path d="M801.947 449.602H870.82V464.916H818.205V490.949H864.908V506.262H818.205V545.159H801.947V449.602Z" fill="#AD822D"/>
<path d="M924.02 497.689C924.02 470.124 943.824 447.767 971.61 447.767C988.754 447.767 998.804 453.892 1007.67 462.774L997.326 475.331C989.936 468.287 981.955 463.386 971.314 463.386C953.874 463.386 940.868 478.394 940.868 497.076V497.382C940.868 516.065 953.579 531.379 971.314 531.379C982.547 531.379 989.936 526.785 997.917 519.128L1008.26 530.154C998.509 540.567 988.163 546.998 970.723 546.998C944.12 546.998 924.02 525.253 924.02 497.689Z" fill="#AD822D"/>
<path d="M1018.61 497.689C1018.61 470.431 1038.71 447.767 1067.09 447.767C1095.47 447.767 1115.27 470.124 1115.27 497.076V497.382C1115.27 524.334 1095.17 546.998 1066.79 546.998C1038.42 546.998 1018.61 524.641 1018.61 497.689ZM1098.42 497.689C1098.42 478.7 1085.42 463.386 1067.09 463.386C1048.76 463.386 1036.05 478.7 1036.05 497.076V497.382C1036.05 516.065 1049.06 531.379 1067.39 531.379C1085.42 531.379 1098.42 516.371 1098.42 497.689Z" fill="#AD822D"/>
<path d="M1135.06 449.602H1152.5L1180.58 494.93L1208.66 449.602H1226.1V545.465H1209.84V476.86L1180.58 521.882H1179.99L1151.02 476.86V545.159H1135.06V449.602Z" fill="#AD822D"/>
<path d="M1249.48 449.602H1285.84C1307.42 449.602 1321.02 462.465 1321.02 481.761V482.067C1321.02 503.506 1304.46 514.838 1284.07 514.838H1265.74V545.771H1249.48V449.602ZM1284.66 499.524C1297.07 499.524 1304.46 492.48 1304.46 482.373V482.067C1304.46 470.735 1296.78 464.916 1284.66 464.916H1265.74V499.524H1284.66V499.524Z" fill="#AD822D"/>
<path d="M1360.92 448.997H1375.99L1416.78 545.472H1399.64L1390.18 522.502H1346.43L1336.97 545.472H1320.42L1360.92 448.997ZM1384.27 507.495L1368.31 469.211L1352.35 507.495H1384.27Z" fill="#AD822D"/>
<path d="M1432.42 449.602H1447.49L1497.15 515.757V449.602H1513.11V545.465H1499.52L1448.38 477.166V545.159H1432.42V449.602Z" fill="#AD822D"/>
<path d="M1537.65 449.602H1553.91V545.465H1537.65V449.602Z" fill="#AD822D"/>
<path d="M1578.47 449.602H1647.05V464.609H1594.73V489.417H1641.13V504.425H1594.73V530.151H1647.64V545.159H1578.47V449.602Z" fill="#AD822D"/>
<path d="M1660.62 531.38L1670.38 519.435C1679.25 527.398 1688.12 531.993 1699.64 531.993C1709.69 531.993 1715.9 527.092 1715.9 520.048V519.742C1715.9 513.004 1712.06 509.328 1694.91 505.041C1675.11 500.14 1664.17 494.015 1664.17 476.557V476.251C1664.17 459.712 1677.47 448.38 1695.8 448.38C1709.4 448.38 1720.04 452.668 1729.2 460.325L1720.33 473.188C1712.06 466.757 1703.78 463.388 1695.21 463.388C1685.75 463.388 1680.13 468.594 1680.13 474.72V475.026C1680.13 482.377 1684.27 485.746 1702.3 490.033C1721.81 494.934 1731.86 502.284 1731.86 518.21V518.517C1731.86 536.28 1718.27 547 1698.76 547C1685.16 546.694 1671.56 541.793 1660.62 531.38Z" fill="#AD822D"/>
<path d="M337.558 369.36L219.616 185.904C219.321 186.21 219.321 186.21 218.73 186.823C193.9 208.568 165.523 222.656 138.033 232.151C146.31 245.014 153.995 256.346 160.794 267.984C167.888 279.623 174.687 290.648 181.485 301.674C188.579 313.313 195.082 324.338 202.472 335.364C209.566 347.002 217.843 358.334 226.415 370.892C228.189 373.954 230.553 376.098 232.918 377.629C235.874 379.467 238.534 380.08 241.195 380.08H334.602C338.444 380.08 339.922 378.855 339.922 376.098C339.922 374.567 339.035 372.423 337.558 369.36Z" fill="#008041"/>
<path d="M106.992 151.91V11.6383C106.992 8.26932 105.81 5.20661 102.854 3.67525C99.8982 1.22508 97.5335 0 94.8731 0H22.1576C18.9061 0 15.9502 1.22508 14.1766 3.36898C12.1075 5.51288 11.2207 8.57559 11.2207 11.332V159.261V244.098V368.75C11.2207 376.407 15.0634 379.776 22.4532 379.776H94.8731C102.559 379.776 106.697 376.407 106.697 368.75V239.81L106.992 151.91Z" fill="#008041"/>
<path d="M297.668 11.9446C294.712 85.4496 264.266 145.479 219.927 185.906C219.632 186.213 219.632 186.213 219.04 186.825C194.211 208.571 165.834 222.659 138.344 232.153H138.048C127.703 235.216 117.357 237.666 107.307 239.81C82.4771 245.017 60.0122 246.242 41.6855 246.242C28.9751 246.242 18.6294 245.323 11.5352 244.404V159.567C23.0632 160.486 65.0372 163.855 107.011 151.91C127.703 146.398 147.803 137.516 164.356 122.815C164.652 122.508 164.652 122.508 165.243 121.896C192.142 97.7004 212.833 59.4166 215.198 11.0258C215.198 4.90034 219.632 0 225.543 0H286.435C292.643 0 297.668 5.51288 297.668 11.9446Z" fill="url(#paint0_linear_2434_47)"/>
<defs>
<linearGradient id="paint0_linear_2434_47" x1="11.3673" y1="123.149" x2="297.54" y2="123.149" gradientUnits="userSpaceOnUse">
<stop stop-color="#C67D29"/>
<stop offset="0.2865" stop-color="white"/>
<stop offset="0.5056" stop-color="#FDDC60"/>
<stop offset="1" stop-color="#BD6828"/>
</linearGradient>
</defs>
</svg>
